<svg id="Layer_1" data-name="Layer 1" xmlns="http://www.w3.org/2000/svg" width="1235.36" height="207.14" viewBox="0 0 1235.36 207.14">
  <defs>
    <style>
      .cls-1 {
        fill: #3b4859;
      }
    </style>
  </defs>
  <g>
    <path class="cls-1" d="M49.49,145.11a7,7,0,0,0,2.5,5.52,8.12,8.12,0,0,0,5.34,2.27H59v11.21c-4.77,0-7.94-.44-9.53-1.33v1.16a17.54,17.54,0,0,1-1.6,7.35,19.17,19.17,0,0,1-11,10.2,24.2,24.2,0,0,1-7.67,1.56H27.59V171.84a12.94,12.94,0,0,0,2.9-.23c.58-.16,1.08-.31,1.51-.47a8.42,8.42,0,0,0,2.7-1.68,8.32,8.32,0,0,0,1.72-2.5,7,7,0,0,0,.69-3V86.25H49.49Z" transform="translate(-27.59 -21.43)"/>
    <path class="cls-1" d="M95.1,164.29H57.28V153H95.1Z" transform="translate(-27.59 -21.43)"/>
    <path class="cls-1" d="M93.36,68.18h12.43V79.46H93.36Zm22,18.19v58.74a17.61,17.61,0,0,1-1.6,7.29,19,19,0,0,1-4.35,6.19,20.2,20.2,0,0,1-6.6,4.13,25.61,25.61,0,0,1-7.67,1.51H93.36V153h1.8a8,8,0,0,0,5.29-2.26,7.27,7.27,0,0,0,1.83-2.56,8,8,0,0,0,.61-3.08V86.37Zm-2.9-18.19h12.37V79.46H112.42Z" transform="translate(-27.59 -21.43)"/>
    <path class="cls-1" d="M153.21,145.11a7.07,7.07,0,0,0,2.49,5.52,7.44,7.44,0,0,0,2.62,1.69,7.33,7.33,0,0,0,2.73.58h1.68v11.21c-4.76,0-7.94-.44-9.52-1.33v1.16a17.69,17.69,0,0,1-1.6,7.35,19.22,19.22,0,0,1-11,10.2,24.14,24.14,0,0,1-7.67,1.56H131.3V171.84a13,13,0,0,0,2.91-.23c.58-.16,1.08-.31,1.51-.47a8.42,8.42,0,0,0,2.7-1.68,8.3,8.3,0,0,0,1.71-2.5,6.85,6.85,0,0,0,.7-3V86.25h12.38Z" transform="translate(-27.59 -21.43)"/>
    <path class="cls-1" d="M198.82,164.29H161V153h37.83Z" transform="translate(-27.59 -21.43)"/>
    <path class="cls-1" d="M218.63,86.37v58.74a17.61,17.61,0,0,1-1.6,7.29,19.07,19.07,0,0,1-4.36,6.19,20.15,20.15,0,0,1-6.59,4.13,25.61,25.61,0,0,1-7.67,1.51h-1.74V153c3.17,0,5.54-.75,7.08-2.26a7,7,0,0,0,1.83-2.56,7.8,7.8,0,0,0,.61-3.08V86.37ZM206.19,172h12.44v11.28H206.19Z" transform="translate(-27.59 -21.43)"/>
    <path class="cls-1" d="M284.75,86.37v77.68a17.47,17.47,0,0,1-1.6,7.35,19.17,19.17,0,0,1-10.95,10.2,24.49,24.49,0,0,1-7.67,1.57h-1.68V172h1.74a8.33,8.33,0,0,0,2.73-.7,7.76,7.76,0,0,0,5.06-7.21V86.37Z" transform="translate(-27.59 -21.43)"/>
    <path class="cls-1" d="M302.18,67.37h12.38v96.74H302.18Z" transform="translate(-27.59 -21.43)"/>
    <path class="cls-1" d="M365.05,158.77l-.17-.18a23,23,0,0,1-6.22,3.9,21.58,21.58,0,0,1-8,1.45H330.25V152.78H350.7a7.61,7.61,0,0,0,5.58-2.32,7.17,7.17,0,0,0,2.44-5.64V105.37a8.05,8.05,0,0,0-.64-3.17,6.81,6.81,0,0,0-1.8-2.47,7.58,7.58,0,0,0-5.58-2.26h-11V86.2h11a20.51,20.51,0,0,1,7.84,1.54A22.67,22.67,0,0,1,365.28,92a18.43,18.43,0,0,1,4.3,6.1,17.82,17.82,0,0,1,1.57,7.32v39.45a7.41,7.41,0,0,0,.67,3.11,11,11,0,0,0,1.77,2.76,7.79,7.79,0,0,0,2.5,1.63,8.66,8.66,0,0,0,2.85.58h1.74v11.15c-1.74,0-2.95,0-3.6-.11s-1.46-.2-2.39-.35a17.43,17.43,0,0,1-3.34-1,20.14,20.14,0,0,1-3.51-1.74A17.5,17.5,0,0,1,365.05,158.77ZM339.72,68.18h12.43V79.46H339.72Z" transform="translate(-27.59 -21.43)"/>
    <path class="cls-1" d="M388.64,124.31V105.54a18.64,18.64,0,0,1,1.42-7.17,17.07,17.07,0,0,1,4.19-6,24.06,24.06,0,0,1,6.82-4.39,37.46,37.46,0,0,1,3.84-1.16c.77-.12,1.48-.22,2.12-.29a16.68,16.68,0,0,1,2.06-.12h37.07V97.64H409.09a7.58,7.58,0,0,0-5.58,2.21,8.81,8.81,0,0,0-.84,1.1c-.37.55-.71,1-1,1.46l-.58,1.68-.11,1.45V113h36.6a20.47,20.47,0,0,1,8,1.57,13,13,0,0,1,3.55,1.86,15,15,0,0,1,3.08,2.44,19.74,19.74,0,0,1,4.27,6,17.48,17.48,0,0,1,1.59,7.32V145a17.42,17.42,0,0,1-.29,3.37c-.19,1-.34,1.7-.46,2.09a10.65,10.65,0,0,1-.81,1.74,18.09,18.09,0,0,1-4.36,6.16,19.54,19.54,0,0,1-6.36,4.15,20.81,20.81,0,0,1-8.17,1.6H379.05V153h58.51a8.14,8.14,0,0,0,3-.56,7,7,0,0,0,2.59-1.77,6.32,6.32,0,0,0,1.8-2.32,15.63,15.63,0,0,0,.52-1.63,6.31,6.31,0,0,0,.24-1.68V132.21A7.63,7.63,0,0,0,445,129a6.78,6.78,0,0,0-1.89-2.44,7.59,7.59,0,0,0-5.58-2.27Zm18.59-50.95h38.52v8.77H407.23Z" transform="translate(-27.59 -21.43)"/>
    <path class="cls-1" d="M574.1,158.71a20.33,20.33,0,0,1-6.15,3.78,21.1,21.1,0,0,1-8,1.56H521.81a20.63,20.63,0,0,1-7.9-1.45,21.22,21.22,0,0,1-3.46-1.77,20.25,20.25,0,0,1-3.16-2.53,19.21,19.21,0,0,1-4.36-6.24,17.7,17.7,0,0,1-1.57-7.18V105.43a18.56,18.56,0,0,1,1.45-7.29,16.59,16.59,0,0,1,4.27-6,24.33,24.33,0,0,1,6.8-4.21,20.28,20.28,0,0,1,7.93-1.69h38.12a21.63,21.63,0,0,1,7.84,1.46,19.86,19.86,0,0,1,6.6,4.12,19.54,19.54,0,0,1,4.41,6.25,17.74,17.74,0,0,1,1.6,7.35v39.45a7.89,7.89,0,0,0,.67,3.14,7.53,7.53,0,0,0,1.77,2.61,7.74,7.74,0,0,0,5.35,2.27h1.74v11.27h-1.69a24.8,24.8,0,0,1-7.72-1.51A25.88,25.88,0,0,1,574.1,158.71ZM516.18,99.79a7.46,7.46,0,0,0-2.39,5.64v39.45a7.52,7.52,0,0,0,2.39,5.58,7.77,7.77,0,0,0,5.63,2.32h38.12a7.64,7.64,0,0,0,2.93-.49,10.2,10.2,0,0,0,2.59-1.66,9.1,9.1,0,0,0,1.77-2.64,7.57,7.57,0,0,0,.73-3.11V105.43a7.51,7.51,0,0,0-2.36-5.64,7.86,7.86,0,0,0-5.66-2.26H521.81a8.72,8.72,0,0,0-3,.49A7.3,7.3,0,0,0,516.18,99.79Z" transform="translate(-27.59 -21.43)"/>
    <path class="cls-1" d="M611,86.37v58.74a17.61,17.61,0,0,1-1.6,7.29,18.74,18.74,0,0,1-4.36,6.16,20.92,20.92,0,0,1-6.56,4.13,25.44,25.44,0,0,1-9.44,1.54V153h1.8a8.05,8.05,0,0,0,5.29-2.26,7.27,7.27,0,0,0,1.83-2.56,8,8,0,0,0,.61-3.08V86.37ZM589,172h12.43v11.28H589Zm17.89,0h12.38v11.28H606.93Z" transform="translate(-27.59 -21.43)"/>
    <path class="cls-1" d="M639.88,67.25V145a10.7,10.7,0,0,0,.11,1.65,9.59,9.59,0,0,0,.47,1.6,7.88,7.88,0,0,0,1.86,2.38q2.32,2.26,7,2.27v11.21A25.57,25.57,0,0,1,640,162.6a21.13,21.13,0,0,1-6.65-4.12,18.52,18.52,0,0,1-5.9-13.48V67.25Z" transform="translate(-27.59 -21.43)"/>
    <path class="cls-1" d="M663.35,158.59,662,159.75a17.85,17.85,0,0,1-1.57,1.05,14.45,14.45,0,0,1-3.49,1.8,19.42,19.42,0,0,1-7.67,1.45h-1.68V152.84h1.68a7.84,7.84,0,0,0,5.41-2.15,9.41,9.41,0,0,0,1.77-2.67,7.81,7.81,0,0,0,.67-3.14V105.6a18.08,18.08,0,0,1,1.62-7.41,18.72,18.72,0,0,1,4.24-6.07,23.05,23.05,0,0,1,6.69-4.18,17,17,0,0,1,3.77-1.13,23,23,0,0,1,4-.32H715.3a20.5,20.5,0,0,1,7.87,1.62,22.83,22.83,0,0,1,6.74,4.22,17.1,17.1,0,0,1,4.27,6,18.42,18.42,0,0,1,1.45,7.26v39.28a17.07,17.07,0,0,1-1.6,7.29,19.91,19.91,0,0,1-4.38,6.13,21,21,0,0,1-6.36,4.19,20.5,20.5,0,0,1-8,1.51H677.41a20.22,20.22,0,0,1-7.9-1.57A21.78,21.78,0,0,1,663.35,158.59Zm11.16-60.37a9.13,9.13,0,0,0-2.62,1.75,7.33,7.33,0,0,0-2.38,5.63v39.28a8.6,8.6,0,0,0,.64,3.31,6.34,6.34,0,0,0,1.68,2.33,8.09,8.09,0,0,0,5.58,2.2H715.3a8.67,8.67,0,0,0,3-.52,7,7,0,0,0,2.56-1.68,7.11,7.11,0,0,0,2.49-5.64V105.6a7.48,7.48,0,0,0-2.44-5.63,9.71,9.71,0,0,0-2.73-1.63,6.21,6.21,0,0,0-2.84-.64H677.41A8.08,8.08,0,0,0,674.51,98.22Z" transform="translate(-27.59 -21.43)"/>
    <path class="cls-1" d="M769.45,145.11a7,7,0,0,0,2.5,5.52,8.12,8.12,0,0,0,5.34,2.27H779v11.21c-4.77,0-7.94-.44-9.53-1.33v1.16a17.54,17.54,0,0,1-1.6,7.35,19.25,19.25,0,0,1-11,10.2,24.2,24.2,0,0,1-7.67,1.56h-1.69V171.84a13,13,0,0,0,2.91-.23c.58-.16,1.08-.31,1.51-.47a8.42,8.42,0,0,0,2.7-1.68,8.32,8.32,0,0,0,1.72-2.5,7,7,0,0,0,.69-3V86.25h12.38Z" transform="translate(-27.59 -21.43)"/>
    <path class="cls-1" d="M793.68,158.77a23.14,23.14,0,0,1-6.28,3.83,23.56,23.56,0,0,1-9.47,1.69V153q4.83,0,7.15-2.32a7.54,7.54,0,0,0,2.32-5.52V86.54h12.44v58.63a6.89,6.89,0,0,0,.69,3.05,8.64,8.64,0,0,0,1.63,2.35,7.79,7.79,0,0,0,5.69,2.44h.3a8.26,8.26,0,0,0,2.55-.58,8.4,8.4,0,0,0,2.73-1.68,7.3,7.3,0,0,0,2.44-5.58V86.54h12.38v58.63a8.79,8.79,0,0,0,.64,3.14,7.17,7.17,0,0,0,1.86,2.44A7.66,7.66,0,0,0,836,153h.52a9,9,0,0,0,2.67-.58,7.81,7.81,0,0,0,2.79-1.74,7.41,7.41,0,0,0,2.32-5.52V86.54h12.38v58.63a18.24,18.24,0,0,1-.29,3.37,20.83,20.83,0,0,1-.47,2.09,9.46,9.46,0,0,1-.81,1.75,16.23,16.23,0,0,1-4.21,6,24,24,0,0,1-6.65,4.21,20.11,20.11,0,0,1-8,1.66,19.5,19.5,0,0,1-7.79-1.46,23.48,23.48,0,0,1-6.33-4.06,22.54,22.54,0,0,1-6.28,3.95,30.79,30.79,0,0,1-3.86,1.1,19.44,19.44,0,0,1-4.16.47,20.07,20.07,0,0,1-7.84-1.57A22.65,22.65,0,0,1,793.68,158.77Z" transform="translate(-27.59 -21.43)"/>
  </g>
  <g>
    <path id="pAz8gEQ9l" class="cls-1" d="M891,228.4c-3.79-.23-4.54-.46-5.72-1.93a6.4,6.4,0,0,1-1.39-5c0-4.54,1.39-6.81,4.43-7.29,1.27-.22,14.29-.38,29-.38s26.64-.19,26.64-.41-.63-3.16-1.45-6.48c-1.79-7.4-1.79-8.63,0-14.47,5.07-17,7-22.72,7.93-23.72s8-3.45,23.49-7.92l7.52-2.28,3.32-6.43c1.81-3.49,4.13-7.81,5.13-9.56s2.75-5.07,3.91-7.34a12,12,0,0,1,3.56-4.7,12.43,12.43,0,0,1,8.46.23c2.11,1.11,2.86,2.93,2.86,6.81,0,2.61-.64,4.25-5.66,13.81-3.09,6-6.52,12.59-7.59,14.7a20.94,20.94,0,0,1-2.95,4.71c-.89.77-7,2.74-25.6,8.29-4.8,1.41-4.55,1-7.07,9.38-3.2,10.5-3.25,10.79-2.16,15.9.53,2.52,1.18,5.61,1.41,6.82l.34,2.27,25.13.16,25.19.14L1006,203.7c-2-5.54-4-11.08-4.55-12.35-1.86-4.55-1.34-6.82,4.07-19.7,2.75-6.54,5.77-13.84,6.81-16.22,2.39-5.89,3.39-6.82,9-7.52,23.74-3.57,54.34-7.63,57-7.63,5.71,0,7.41,1.68,7.41,7.4,0,3.43-1.29,5.77-3.61,6.52-1.07.36-14,2.27-28.69,4.43s-26.83,3.86-26.88,4-3.79,8.49-6.82,16.15l-3.27,7.86,4.84,12.84c2.64,7,5,13.17,5.25,13.63s23.67.7,109.57.7c85.46,0,109.43.16,110.54.75a7.28,7.28,0,0,1,3.14,7.86c-.57,4.54-2.27,6-7.57,6C1210.31,228.63,894.07,228.63,891,228.4Z" transform="translate(-27.59 -21.43)"/>
    <path id="pHvQFxSX8" class="cls-1" d="M1093.35,202.93c-3.84-.77-4.54-5.31-2.5-18.56.64-4.13,1.16-7.86,1.16-8.27a86.58,86.58,0,0,1,7-9.49,98,98,0,0,0,7-9.34,35.34,35.34,0,0,0-3.89-5.07c-2.27-2.52-5.06-6-6.52-7.77-7.59-9.49-15.26-13.33-26.65-13.4-3.9,0-4.24,0-5.65-1.8a6.23,6.23,0,0,1-1.52-5c0-6.82,2.27-8.16,13.06-7.63,10.15.47,16.33,2.52,23.33,7.81a34.53,34.53,0,0,0,4.2,2.91c1.91.77,18.88-11.59,28.15-20.45a147.11,147.11,0,0,0,10.68-11.65,51.86,51.86,0,0,1,6.18-6.82,9.06,9.06,0,0,1,8.92.28c2,1.29,2,1.4,2.28,6.54.41,6.11.41,6.06,4.72,12.54,6,9.09,7.75,13.4,8.75,22.49l.68,6.13,1.7-.18c1.57-.18,1.93-.75,6.07-10.09,5.07-11.35,12.47-28.28,12.88-29.21,0-.41-.75-1.27-2-2.05s-3.9-2.38-6-3.77-9.67-6.18-16.9-10.74-16.67-10.61-21-13.41-11.36-7.22-15.63-9.9l-7.75-4.84-3.31,1.68c-3,1.52-3.91,1.71-8.86,1.71-5.55,0-7.36-.53-11.09-2.94-1.45-1-1.64-.86-16.61,8.64-8.33,5.31-19.72,12.58-25.3,16.26s-10.39,6.71-10.68,6.82-2.5,1.48-4.91,3c-3.2,2.16-4.29,3.21-4.29,4.21a12.55,12.55,0,0,1-7.36,10.58,22.28,22.28,0,0,1-6.59.82,12.63,12.63,0,0,1-7.36-1.45l-2.73-1.46L991.87,106c-12.72,3.27-23.74,6.06-24.42,6.18-1.41.36-1.7,1.11-4.91,13.47-8.83,33.94-8.08,31.67-10.22,33.05a10.6,10.6,0,0,1-4.91.89c-3.2,0-3.79-.18-5.29-1.71-2.52-2.49-2.27-6.11.93-18.42,1.39-5.41,2.5-10,2.27-10s-2.27,1.57-12.65,10.32c-8.34,7.06-9.09,7.58-12.43,7.58-2.68,0-4.25-.59-19.88-7.22-14.56-6.25-15.38-6.66-16.31-8.59-2-3.72-.59-9.68,2.57-11a16.85,16.85,0,0,1,10.84,1c2.9,1.48,20.44,8.88,20.92,8.88s15.63-12.79,31.53-26.37l5.14-4.55,8.27-2.09c4.54-1.16,11.35-2.91,15-3.91s12.45-3.09,19.27-4.83c14.65-3.73,15.18-3.91,15.18-5.48a9.4,9.4,0,0,1,2.49-3.75c3.09-3.09,6.82-4.18,12.32-3.61l3.61.36,9-5.72c57.14-36.35,54.34-34.33,55.21-37.49a15,15,0,0,1,14.45-11.54c9.52-.57,16.33,3.57,18.38,11.36,1,3.73,1.11,3.84,8.74,8.63l11,6.93,9.09,5.71c2.91,1.88,8.68,5.54,12.81,8.17s8.93,5.66,10.5,6.71,6.18,3.9,10.2,6.52c7.77,4.95,14.76,9.45,16.33,10.38.59.36,3.27,2.11,6,4,3.16,2.09,5.31,3.25,5.77,3s3.75-2.52,7.36-5.09l6.59-4.54-1-1.52a28.59,28.59,0,0,0-2.05-2.73c-1.45-1.59-1.5-5.32,0-5.66,3.8-1.11,31.65-5.77,32.42-5.5s.93,1.07.93,2.28c0,1.86-1.06,4.54-9.08,23.37l-3.39,8h-2.27c-1.23,0-2.27-.16-2.27-.41a10.56,10.56,0,0,0-1.91-2.68l-1.86-2.27-8.11,5.58c-11.5,7.93-12.48,8.46-15.91,8.46-2.45,0-3.5-.41-6.81-2.62l-4-2.56L1205,109.7c-1.23,2.63-3.14,6.81-4.25,9.45s-4.55,10.43-7.7,17.49c-7.23,16.15-5.66,15-20.45,14.59a94.62,94.62,0,0,1-12.36-1c-2.27-.82-2.68-2.75-3-11.84-.18-7.18-.36-8.63-1.7-11.84a102,102,0,0,0-8-13.54,17.38,17.38,0,0,0-3.68,3.16l-3.43,3.43,3.09,3.5c7.29,8.45,9.68,11.5,10,13s-1.68,19.65-3.28,29.32c-.27,1.75-.79,5.43-1.15,8.18-1.57,12-1.75,12.7-3.62,14.27a6.45,6.45,0,0,1-5.13,1.48c-3.14,0-3.61-.19-5.18-1.89s-1.82-2.27-1.82-5.41c.13-3.31.43-6.62.89-9.9.52-3.5,1.16-8.52,1.45-11.09s1-7.63,1.46-11.36.88-7,.88-7.4a71.29,71.29,0,0,0-10-11.77,15.24,15.24,0,0,0-3.61,2.27c-1.7,1.21-5,3.36-7.29,4.84l-4.21,2.61,2.5,2.87c1.41,1.56,3.91,4.54,5.55,6.52,2.9,3.56,3,3.79,3,7.29a12.67,12.67,0,0,1-.77,4.84c-.34.7-3.84,5.13-7.7,9.86-10.09,12.35-9.43,11.13-10.5,19.53s-1.61,10.14-3.43,11.36A15.46,15.46,0,0,1,1093.35,202.93Z" transform="translate(-27.59 -21.43)"/>
  </g>
  <path class="cls-1" d="M1244.31,77.55a4.61,4.61,0,0,1,0,.83l.09-.66a4.21,4.21,0,0,1-.3,1.09l.25-.59a4.7,4.7,0,0,1-.52.89l.39-.51a3.7,3.7,0,0,1-.42.46l4.18,1.11a7.55,7.55,0,0,1-.31-1.31l.09.66a7.77,7.77,0,0,1-.06-1,2.59,2.59,0,0,0-.73-1.77,1.93,1.93,0,0,0-.81-.51,1.88,1.88,0,0,0-1-.22,2.53,2.53,0,0,0-1.77.73,2.59,2.59,0,0,0-.73,1.77,11.92,11.92,0,0,0,.17,1.79,6.79,6.79,0,0,0,.29,1.16,2.48,2.48,0,0,0,1.75,1.74,2.54,2.54,0,0,0,2.43-.64,7.28,7.28,0,0,0,1-1.18A7.2,7.2,0,0,0,1249,80a4.59,4.59,0,0,0,.24-.9,6.89,6.89,0,0,0,.12-1.57,1.88,1.88,0,0,0-.22-1,2.16,2.16,0,0,0-1.32-1.32,1.88,1.88,0,0,0-1-.22,2.53,2.53,0,0,0-1.77.73,2.48,2.48,0,0,0-.73,1.77Z" transform="translate(-27.59 -21.43)"/>
  <path class="cls-1" d="M1242.76,80.05c.31.33.63.65,1,1s1,.84,1.52,1.24a1.85,1.85,0,0,0,.93.29,1.89,1.89,0,0,0,1,0,2.8,2.8,0,0,0,1.49-1.15l.25-.6a2.5,2.5,0,0,0,0-1.33l-.25-.59a2.43,2.43,0,0,0-.9-.9l0,0,.5.4a16.93,16.93,0,0,1-1.93-1.76,1.83,1.83,0,0,0-.8-.51,2.58,2.58,0,0,0-2.73.51l-.39.51a2.43,2.43,0,0,0-.34,1.26l.09.67a2.5,2.5,0,0,0,.64,1.1Z" transform="translate(-27.59 -21.43)"/>
</svg>
