<svg xmlns="http://www.w3.org/2000/svg" width="36" height="35" viewBox="0 0 36 35"><defs><clipPath id="49d5a"><path d="M.148 32.447V12.54C.148 5.85 5.57.429 12.258.429h11.397c6.689 0 12.11 5.422 12.11 12.11v19.908a2.374 2.374 0 0 1-2.374 2.374H2.522a2.374 2.374 0 0 1-2.374-2.374z"/></clipPath></defs><g><g><path fill="#2c5da0" d="M.148 32.447V12.54C.148 5.85 5.57.429 12.258.429h11.397c6.689 0 12.11 5.422 12.11 12.11v19.908a2.374 2.374 0 0 1-2.374 2.374H2.522a2.374 2.374 0 0 1-2.374-2.374z"/></g><g clip-path="url(#49d5a)"><path fill="#fe5434" d="M18-12.334h26v60.667H18z"/></g><g><path fill="#fff" d="M30.902 22.484V19.4h-2.437a13.685 13.685 0 0 0-10.181-4.524c-4.04 0-7.67 1.746-10.182 4.524H5.665v3.415h5.408v-.665a9.652 9.652 0 0 1 7.21-3.227 9.652 9.652 0 0 1 7.211 3.227v.665h5.408z"/></g></g></svg>