<svg id="Flat" height="512" viewBox="0 0 512 512" width="512" xmlns="http://www.w3.org/2000/svg"><circle cx="256" cy="256" fill="#ffd754" r="232"/><circle cx="256" cy="256" fill="#edb90c" r="184"/><path d="m208 296a8 8 0 0 0 -16 0c0 13.339 7.015 25.7 19.752 34.794 9.988 7.134 22.64 11.57 36.248 12.826v16.38a8 8 0 0 0 16 0v-16.38c13.608-1.256 26.26-5.692 36.248-12.826 12.737-9.094 19.752-21.455 19.752-34.794s-7.015-25.7-19.752-34.794c-9.988-7.134-22.64-11.57-36.248-12.826v-63.9c22.369 2.626 40 15.992 40 31.525a8 8 0 0 0 16 0c0-13.339-7.015-25.7-19.752-34.794-9.988-7.134-22.64-11.57-36.248-12.826v-16.385a8 8 0 0 0 -16 0v16.38c-13.608 1.256-26.26 5.692-36.248 12.826-12.737 9.094-19.752 21.455-19.752 34.794s7.015 25.7 19.752 34.794c9.988 7.134 22.64 11.57 36.248 12.826v63.9c-22.369-2.62-40-15.987-40-31.52zm96 0c0 15.533-17.631 28.9-40 31.525v-63.05c22.369 2.625 40 15.992 40 31.525zm-96-80c0-15.533 17.631-28.9 40-31.525v63.05c-22.369-2.625-40-15.992-40-31.525z" fill="#fbe36a"/><g fill="#fbefb2"><path d="m74.782 232a8 8 0 0 1 -7.889-9.383 192.259 192.259 0 0 1 155.725-155.724 8 8 0 1 1 2.764 15.76 176.212 176.212 0 0 0 -142.729 142.729 8 8 0 0 1 -7.871 6.618z"/><path d="m287.99 445.229a8 8 0 0 1 -1.372-15.882 176.214 176.214 0 0 0 142.73-142.729 8 8 0 1 1 15.759 2.764 192.259 192.259 0 0 1 -155.725 155.725 8.051 8.051 0 0 1 -1.392.122z"/><circle cx="72" cy="256" r="8"/><circle cx="256" cy="72" r="8"/><circle cx="440" cy="256" r="8"/><circle cx="256" cy="440" r="8"/></g></svg>