<?xml version="1.0" encoding="iso-8859-1"?>
<!-- Generator: Adobe Illustrator 19.0.0, SVG Export Plug-In . SVG Version: 6.00 Build 0)  -->
<svg xmlns="http://www.w3.org/2000/svg" xmlns:xlink="http://www.w3.org/1999/xlink" version="1.1" id="Layer_1" x="0px" y="0px" viewBox="0 0 489.812 489.812" style="enable-background:new 0 0 489.812 489.812;" xml:space="preserve" width="512" height="512">
<g>
	<path style="fill:#3E5268;" d="M245.267,489.715c-3.747,0-7.5-0.084-11.268-0.254c-24.353-1.095-48.228-5.744-70.961-13.817   c-3.784-1.344-5.763-5.501-4.419-9.286c1.344-3.784,5.499-5.763,9.285-4.419c21.377,7.59,43.834,11.962,66.748,12.993   c61.451,2.774,120.284-18.562,165.685-60.054c45.401-41.491,71.927-98.179,74.692-159.622   c2.765-61.442-18.563-120.284-60.053-165.685c-41.491-45.401-98.179-71.928-159.622-74.692   C193.919,12.11,135.07,33.442,89.669,74.933c-45.401,41.491-71.927,98.179-74.692,159.622c-0.18,4.012-3.586,7.105-7.591,6.937   c-4.012-0.181-7.118-3.579-6.938-7.591c2.94-65.323,31.141-125.592,79.41-169.704c48.269-44.111,110.832-66.79,176.15-63.847   c65.323,2.939,125.591,31.141,169.703,79.41c44.112,48.269,66.787,110.827,63.847,176.15   c-2.939,65.323-31.141,125.591-79.409,169.703C364.664,467.181,306.485,489.715,245.267,489.715z"/>
	<path style="fill:#E06919;" d="M144.176,162.274h201.55c19.15,0,34.674,15.524,34.674,34.674v3.057   c0,19.15-15.524,34.674-34.674,34.674h-201.55c-19.15,0-34.674-15.524-34.674-34.674v-3.057   C109.501,177.798,125.026,162.274,144.176,162.274z"/>
	<path style="fill:#FFCBB3;" d="M402.738,272.174c0,19.843-15.282,36.104-34.712,37.659c-1.014,0.086-2.044,0.129-3.075,0.129   c-2.646,0-5.223-0.266-7.714-0.79H129.635c-2.491,0.524-5.068,0.79-7.714,0.79h-0.026c-20.865-0.017-37.762-16.922-37.762-37.788   c0-19.671,15.033-35.829,34.24-37.607c1.168-0.12,2.354-0.172,3.548-0.172c1.589,0,3.144,0.094,4.682,0.283h233.666   c1.538-0.189,3.093-0.283,4.682-0.283c2.242,0,4.441,0.198,6.571,0.575C389.26,238.071,402.738,253.55,402.738,272.174z"/>
	<path style="fill:#E89876;" d="M371.522,234.97v47.864c0,9.294-1.211,18.34-3.496,26.999c-1.014,0.086-2.044,0.129-3.075,0.129   c-2.646,0-5.223-0.266-7.714-0.79H129.635c-2.491,0.524-5.068,0.79-7.714,0.79h-0.026c-2.302-8.702-3.522-17.781-3.522-27.127   v-48.267c1.168-0.12,2.354-0.172,3.548-0.172c1.589,0,3.144,0.094,4.682,0.283h233.666c1.538-0.189,3.093-0.283,4.682-0.283   C367.193,234.395,369.392,234.592,371.522,234.97z"/>
	<path style="fill:#E89876;" d="M382.137,280.812c-2.896,0-5.654-1.687-6.882-4.512c-3.076-7.074-12.54-4.479-12.941-4.365   c-3.985,1.132-8.132-1.183-9.263-5.167c-1.131-3.984,1.182-8.132,5.167-9.263c7.763-2.206,24.194-2.363,30.792,12.814   c1.652,3.798-0.089,8.217-3.888,9.868C384.15,280.611,383.135,280.812,382.137,280.812z"/>
	<path style="fill:#E89876;" d="M108.617,280.811c-0.999,0-2.015-0.201-2.99-0.625c-3.798-1.653-5.536-6.073-3.883-9.871   c3.732-8.574,13.425-16.53,29.441-13.14c4.052,0.857,6.643,4.838,5.785,8.89c-0.857,4.052-4.838,6.643-8.89,5.785   c-3.638-0.771-10.114-1.216-12.582,4.452C114.269,279.125,111.511,280.811,108.617,280.811z"/>
	<path style="fill:#E89876;" d="M360.268,217.653v78.53c0,56.196-40.201,103.003-93.417,113.234   c-7.087,1.366-14.414,2.079-21.905,2.079c-63.687,0-115.313-51.626-115.313-115.313v-78.53   c0-63.687,51.626-115.321,115.313-115.321c7.49,0,14.818,0.713,21.905,2.079c23.064,4.432,43.68,15.737,59.641,31.697   C347.357,156.981,360.268,185.809,360.268,217.653z"/>
	<path style="fill:#FFCBB3;" d="M360.268,217.653v78.53c0,56.196-40.201,103.003-93.417,113.234   c-53.215-10.231-93.417-57.038-93.417-113.234v-78.53c0-56.196,40.201-103.012,93.417-113.242   c23.064,4.432,43.68,15.737,59.641,31.697C347.357,156.981,360.268,185.809,360.268,217.653z"/>
	<g>
		<g>
			<path style="fill:#27394C;" d="M194.713,288.133c-4.142,0-7.5-3.358-7.5-7.5v-28.346c0-4.142,3.358-7.5,7.5-7.5     s7.5,3.358,7.5,7.5v28.346C202.213,284.775,198.855,288.133,194.713,288.133z"/>
			<path style="fill:#27394C;" d="M295.188,288.133c-4.142,0-7.5-3.358-7.5-7.5v-28.346c0-4.142,3.358-7.5,7.5-7.5     s7.5,3.358,7.5,7.5v28.346C302.688,284.775,299.33,288.133,295.188,288.133z"/>
		</g>
	</g>
	<path style="fill:#F9A74D;" d="M353.411,48.093l-51.734,51.734c-4.382-10.761-14.931-18.354-27.267-18.354   c-10.123,0-19.049,5.112-24.348,12.891c-13.52-16.656-34.151-27.303-57.278-27.303c-40.745,0-73.776,33.03-73.776,73.776   s33.03,73.776,73.776,73.776c17.021,0,32.684-5.779,45.167-15.462c36.638,20.998,84.167,15.872,115.46-15.422   C390.866,146.273,390.866,85.547,353.411,48.093z"/>
	<path style="fill:#E06919;" d="M163.28,140.836c0,33.029,21.707,60.996,51.631,70.394c-6.971,2.2-14.412,3.381-22.127,3.381   c-40.745,0-73.774-33.029-73.774-73.774s33.029-73.774,73.774-73.774c7.715,0,15.14,1.181,22.127,3.381   C184.987,79.84,163.28,107.807,163.28,140.836z"/>
	<path style="fill:#FC74AF;" d="M278.923,331.555c0,18.76-15.21,33.97-33.97,33.97s-33.97-15.21-33.97-33.97   c0-6.05,1.58-10.52,4.36-13.81c5.82-6.91,16.9-8.57,29.61-8.57c12.71,0,23.79,1.66,29.61,8.57   C277.343,321.035,278.923,325.505,278.923,331.555z"/>
	<path style="fill:#FFFFFF;" d="M274.563,317.745c-5.82,6.91-16.9,8.57-29.61,8.57c-12.71,0-23.79-1.66-29.61-8.57   c5.82-6.91,16.9-8.57,29.61-8.57C257.663,309.175,268.743,310.835,274.563,317.745z"/>
	<path style="fill:#96EFFF;" d="M71.269,446.301l22.54,22.54c25.736,25.736,67.463,25.736,93.2,0l11.744-11.744   c4.397-4.397,4.397-11.526,0-15.923l-8.078-8.078l-7.973-7.973l-14.611-14.611c-4.397-4.397-11.526-4.397-15.923,0l-15.287,15.287   c-7.914,7.914-20.746,7.914-28.661,0l-45.874-45.874c-7.914-7.914-7.914-20.746,0-28.66l15.287-15.287   c4.397-4.397,4.397-11.526,0-15.923l-30.662-30.662c-4.397-4.397-11.526-4.397-15.923,0l-11.744,11.744   c-25.736,25.736-25.736,67.463,0,93.2l44.659,44.659L71.269,446.301z"/>
	<path style="fill:#4CBFD4;" d="M198.975,456.866c-0.07,0.08-0.15,0.15-0.22,0.23l-11.75,11.74c-25.73,25.74-67.46,25.74-93.2,0   l-74.5-74.5c-25.74-25.74-25.74-67.46,0-93.2l11.74-11.74c-25.46,25.76-25.37,67.27,0.28,92.92l44.66,44.66l7.3,7.3l22.54,22.54   C131.545,482.536,173.245,482.556,198.975,456.866z"/>
	<path style="fill:#E6E6E6;" d="M152.161,410.512l-11.74,11.74l46.58,46.58l11.75-11.74c4.39-4.4,4.39-11.53,0-15.92l-8.08-8.08   l-7.97-7.97l-14.61-14.61C163.691,406.112,156.561,406.112,152.161,410.512z"/>
	<path style="fill:#E6E6E6;" d="M19.301,301.132l46.58,46.59l11.75-11.75c4.39-4.4,4.39-11.52,0-15.92l-30.66-30.66   c-4.4-4.4-11.53-4.4-15.93,0L19.301,301.132z"/>
</g>















</svg>
